<svg xmlns="http://www.w3.org/2000/svg" viewBox="0 0 80 80">
  <defs>
    <style>
      .cls-1 {
        fill: #3496fa;
      }
    </style>
  </defs>
  <g id="Reports_landing" transform="translate(-920 -858)">
    <path id="Path_1287" data-name="Path 1287" class="cls-1" d="M35.733,47.822l-3.022-4.089a2.383,2.383,0,0,0-3.822,2.844l4.978,6.578a2.594,2.594,0,0,0,1.867.978,2.623,2.623,0,0,0,1.956-.978L49.244,37.511a2.316,2.316,0,0,0-.533-3.289,2.421,2.421,0,0,0-3.378.533ZM40,0A40,40,0,1,0,80,40,39.946,39.946,0,0,0,40,0Zm8.356,17.067L57.778,26.4H48.356Zm10.578,44.8a2.258,2.258,0,0,1-2.222,2.222H23.289a2.2,2.2,0,0,1-2.222-2.222V18.133A2.242,2.242,0,0,1,23.289,16H44.356V28.444A2.012,2.012,0,0,0,46.4,30.489H58.933Z" transform="translate(920 858)"/>
  </g>
</svg>
