<svg xmlns="http://www.w3.org/2000/svg" viewBox="0 0 90.542 80">
  <defs>
    <style>
      .cls-1 {
        fill: #3496fa;
      }
    </style>
  </defs>
  <g id="SSP" transform="translate(-1467 -858)">
    <path id="Path_1288" data-name="Path 1288" class="cls-1" d="M2.347,46.752.019,23.935a3.555,3.555,0,0,1,1.118-2.98,2.833,2.833,0,0,1,4,.279c.838,1.024,1.3,4.1,1.49,4.936A95.658,95.658,0,0,1,7.749,36.414v.652a10.45,10.45,0,0,0,.931,3.725c3.073,6.612,9.127,14.994,9.127,14.994l.373.466a.889.889,0,0,0,1.118.279.942.942,0,0,0,.373-1.211l-8.1-13.132a3.344,3.344,0,0,1,1.211-4.47,3.379,3.379,0,0,1,4.563,1.024l8.382,10.8a10.565,10.565,0,0,0,2.328,2.235c7.544,5.4,8.568,10.99,9.22,13.783a12.383,12.383,0,0,1,.093,1.583h0a13.2,13.2,0,0,1-.186,2.608l-.466,9.034A1.233,1.233,0,0,1,35.5,80l-14.156-.093A1.233,1.233,0,0,1,20.135,78.7l-.279-7.451-13.6-16.3A13.289,13.289,0,0,1,2.534,47.59ZM8.485,22.817a22.7,22.7,0,0,1,.559,2.421,90.9,90.9,0,0,1,1.118,9.686v.745a3.345,3.345,0,0,1,.931-.652,3.265,3.265,0,0,1,1.3-.559.091.091,0,0,1,.093-.093,78.844,78.844,0,0,0-1.769-9.127A3.278,3.278,0,0,0,8.485,22.817Zm4.563,3.26c.373,1.676,1.3,4.843,1.583,6.519l.186,1.118v.279a7.921,7.921,0,0,1,2.049.373c-.186-1.49-1.211-4.563-1.583-5.96A3.682,3.682,0,0,0,13.048,26.077Zm72.363-4.843c-.838,1.024-1.3,4.1-1.49,4.936A95.657,95.657,0,0,0,82.8,36.414v.652a10.45,10.45,0,0,1-.931,3.725C78.8,47.4,72.745,55.786,72.745,55.786l-.373.466a.889.889,0,0,1-1.118.279.942.942,0,0,1-.373-1.211l8.1-13.132a3.344,3.344,0,0,0-1.211-4.47,3.379,3.379,0,0,0-4.563,1.024l-8.382,10.8A10.565,10.565,0,0,1,62.5,51.781c-7.544,5.4-8.568,10.99-9.22,13.783a12.383,12.383,0,0,0-.093,1.583h0a13.2,13.2,0,0,0,.186,2.608l.466,9.034A1.233,1.233,0,0,0,55.05,80l14.156-.093A1.233,1.233,0,0,0,70.417,78.7l.279-7.451,13.6-16.3a14.062,14.062,0,0,0,3.818-7.357l.093-.838,2.328-22.817a3.555,3.555,0,0,0-1.118-2.98A2.829,2.829,0,0,0,85.411,21.234ZM78.156,34.272h0c.466.186.931.466,1.3.652a8.055,8.055,0,0,1,.931.652v-.745a88.223,88.223,0,0,1,1.118-9.686,12.831,12.831,0,0,1,.559-2.421,3.016,3.016,0,0,0-2.142,2.421A75.1,75.1,0,0,0,78.156,34.272Zm-2.794-5.867c-.373,1.4-1.4,4.47-1.583,5.96a5.012,5.012,0,0,1,2.049-.373v-.279l.186-1.118c.186-1.676,1.211-4.75,1.583-6.519A3.274,3.274,0,0,0,75.362,28.405ZM63.618,29.9a19.694,19.694,0,0,1-2.049,5.029l2.7,3.818a1.961,1.961,0,0,1-.186,2.328l-1.676,1.676-1.676,1.676a1.832,1.832,0,0,1-2.328.186l-3.818-2.7a18.475,18.475,0,0,1-4.843,2.049L49,48.615a1.88,1.88,0,0,1-1.77,1.49H42.571a1.88,1.88,0,0,1-1.77-1.49l-.745-4.563A21.161,21.161,0,0,1,35.027,42L31.3,44.517a1.961,1.961,0,0,1-2.328-.186L27.3,42.654l-1.583-1.583a1.832,1.832,0,0,1-.186-2.328l2.7-3.818a20.871,20.871,0,0,1-2.142-4.936l-4.657-.745a1.88,1.88,0,0,1-1.49-1.769V22.817a1.88,1.88,0,0,1,1.49-1.769l4.563-.745a21.161,21.161,0,0,1,2.049-5.029l-2.7-3.818a1.961,1.961,0,0,1,.186-2.328L27.2,7.451,28.88,5.774a1.832,1.832,0,0,1,2.328-.186l3.818,2.7a17.6,17.6,0,0,1,5.122-2.142l.745-4.657A1.88,1.88,0,0,1,42.664,0H47.32a1.88,1.88,0,0,1,1.77,1.49l.745,4.657A19.694,19.694,0,0,1,54.864,8.2l3.818-2.7a1.823,1.823,0,0,1,2.235.186l1.676,1.676L64.27,9.034a1.832,1.832,0,0,1,.186,2.328l-2.7,3.818A16.834,16.834,0,0,1,63.8,20.21l4.657.745a1.88,1.88,0,0,1,1.49,1.769v4.657a1.88,1.88,0,0,1-1.49,1.769ZM51.428,18.44a9.088,9.088,0,1,0,0,12.852A9.106,9.106,0,0,0,51.428,18.44Z" transform="translate(1466.995 858)"/>
  </g>
</svg>
