<svg xmlns="http://www.w3.org/2000/svg" viewBox="0 0 75.493 64">
  <defs>
    <style>
      .cls-1 {
        fill: #3b86ff;
        fill-rule: evenodd;
      }
    </style>
  </defs>
  <g id="Training" transform="translate(-1130 -1498.333)">
    <g id="Group_22" data-name="Group 22" transform="translate(1130 1498.333)">
      <g id="Group_21" data-name="Group 21">
        <path id="Path_40" data-name="Path 40" class="cls-1" d="M23.562-32.01v-4.116a1.868,1.868,0,0,1,1.869-1.869H37.3a1.866,1.866,0,0,1,1.86,1.869v4.116Zm18.161,0v-4.116a1.868,1.868,0,0,1,1.869-1.869h11.88a1.866,1.866,0,0,1,1.86,1.869v4.116Zm18.161,0v-4.116a1.868,1.868,0,0,1,1.869-1.869h11.88a1.866,1.866,0,0,1,1.86,1.869v4.116ZM4.152-38.228V-55.967H1.968A1.954,1.954,0,0,1,0-57.926V-75.683a1.967,1.967,0,0,1,1.968-1.968H6.821l4.071,4.071,4.071-4.071H21V-91.274a2.215,2.215,0,0,1,2.211-2.211h14.4A1.8,1.8,0,0,1,37.6-93.8a2.215,2.215,0,0,1,2.211-2.211h7.225A2.215,2.215,0,0,1,49.245-93.8c0,.108-.009.207-.018.315H65.474a2.215,2.215,0,0,1,2.211,2.211V-59.3a2.209,2.209,0,0,1-2.211,2.211H60.289A2.209,2.209,0,0,1,58.078-59.3a2.215,2.215,0,0,1,2.211-2.211h2.974V-89.064H25.431v11.413h4.34a1.96,1.96,0,0,1,1.959,1.968v2.372a1.958,1.958,0,0,1-1.959,1.959h-4.34v9.84h20.39A2.215,2.215,0,0,1,48.031-59.3a2.209,2.209,0,0,1-2.211,2.211H23.211A2.209,2.209,0,0,1,21-59.3V-71.352h-3.37v33.123a1.584,1.584,0,0,1-1.582,1.582H12.437a1.581,1.581,0,0,1-1.546-1.24,1.589,1.589,0,0,1-1.546,1.24H5.733A1.572,1.572,0,0,1,4.152-38.228Zm22.07-6.335a4.955,4.955,0,0,1,4.951-4.951,4.955,4.955,0,0,1,4.951,4.951,4.955,4.955,0,0,1-4.951,4.951A4.955,4.955,0,0,1,26.222-44.564Zm18.161,0a4.955,4.955,0,0,1,4.951-4.951,4.955,4.955,0,0,1,4.951,4.951,4.955,4.955,0,0,1-4.951,4.951A4.955,4.955,0,0,1,44.383-44.564Zm18.161,0A4.955,4.955,0,0,1,67.5-49.515a4.955,4.955,0,0,1,4.951,4.951A4.955,4.955,0,0,1,67.5-39.612,4.955,4.955,0,0,1,62.544-44.564ZM50.664-59.3a2.215,2.215,0,0,1,2.211-2.211h.341A2.215,2.215,0,0,1,55.427-59.3a2.209,2.209,0,0,1-2.211,2.211h-.341A2.221,2.221,0,0,1,50.664-59.3ZM5.832-84.894a5.225,5.225,0,0,1,5.221-5.221,5.225,5.225,0,0,1,5.221,5.221,5.225,5.225,0,0,1-5.221,5.221A5.231,5.231,0,0,1,5.832-84.894Z" transform="translate(0 96.01)"/>
      </g>
    </g>
  </g>
</svg>
